<svg id="Layer_1" data-name="Layer 1" xmlns="http://www.w3.org/2000/svg" viewBox="0 0 387.64 387.64"><defs><style>.cls-1{fill:#fff;}</style></defs><path class="cls-1" d="M0,194.18V0H387.64V387.64H0V194.83c2.21.28,4.46.4,6.63.88,49,10.74,90.92,34.18,125.35,70.69a236.12,236.12,0,0,1,60.37,115.82c.31,1.49.72,2.95,1.3,5.3,18.87-98.64,95.22-174.86,191.64-192.79-103-25-167.25-89.41-192.43-192.62-.16.86-.42,2.33-.73,3.8S191.42,9,191,10.6C172.69,86.43,128.22,141.28,58.28,175.51,39.8,184.56,20.2,190.37,0,194.18Z"/><path d="M0,194.18c20.2-3.81,39.8-9.62,58.28-18.67C128.22,141.28,172.69,86.43,191,10.6c.38-1.56.75-3.12,1.09-4.69s.57-2.94.73-3.8C218,105.32,282.31,169.77,385.29,194.73c-96.42,17.93-172.77,94.15-191.64,192.79-.58-2.35-1-3.81-1.3-5.3A236.12,236.12,0,0,0,132,266.4C97.55,229.89,55.64,206.45,6.63,195.71c-2.17-.48-4.42-.6-6.63-.88Z"/></svg>